<mxfile host="app.diagrams.net" modified="2024-01-16T09:53:46.885Z" agent="Mozilla/5.0 (Windows NT 10.0; Win64; x64) AppleWebKit/537.36 (KHTML, like Gecko) Chrome/120.0.0.0 Safari/537.36" etag="cUIgkaiz3pKZW2SgbRNb" version="22.1.18" type="device">
  <diagram name="Страница 1" id="2EFPwaIbJWD595ykWgaV">
    <mxGraphModel dx="4014" dy="1733" grid="1" gridSize="10" guides="1" tooltips="1" connect="1" arrows="1" fold="1" page="1" pageScale="1" pageWidth="827" pageHeight="1169" math="0" shadow="0">
      <root>
        <mxCell id="0" />
        <mxCell id="1" parent="0" />
        <mxCell id="pVMVurdd3-viT6NpHDVu-6" value="" style="rounded=0;whiteSpace=wrap;html=1;fillColor=#d5e8d4;strokeColor=#82b366;" parent="1" vertex="1">
          <mxGeometry x="740" y="320" width="290" height="890" as="geometry" />
        </mxCell>
        <mxCell id="OYgqFkg33m7x1YFqYTqs-69" value="" style="rounded=0;whiteSpace=wrap;html=1;fillColor=#dae8fc;strokeColor=#6c8ebf;" parent="1" vertex="1">
          <mxGeometry x="250" y="320" width="472.12" height="890" as="geometry" />
        </mxCell>
        <mxCell id="6Z-7mK7u9qymeT9xuxMa-6" value="" style="rounded=0;whiteSpace=wrap;html=1;" parent="1" vertex="1">
          <mxGeometry x="-160" y="519" width="330" height="220" as="geometry" />
        </mxCell>
        <mxCell id="gb8FqWn3YgWelBB0Mvwm-52" value="" style="rounded=0;whiteSpace=wrap;html=1;fillColor=#f5f5f5;fontColor=#333333;strokeColor=#666666;" parent="1" vertex="1">
          <mxGeometry x="250" y="1228" width="1640" height="237" as="geometry" />
        </mxCell>
        <mxCell id="gb8FqWn3YgWelBB0Mvwm-1" value="" style="rounded=0;whiteSpace=wrap;html=1;fillColor=#f8cecc;strokeColor=#b85450;opacity=80;" parent="1" vertex="1">
          <mxGeometry x="250" y="26" width="472.12" height="275" as="geometry" />
        </mxCell>
        <mxCell id="OYgqFkg33m7x1YFqYTqs-1" value="" style="rounded=0;whiteSpace=wrap;html=1;fillColor=#ffe6cc;strokeColor=#d79b00;opacity=60;" parent="1" vertex="1">
          <mxGeometry x="1050" y="320" width="840" height="890" as="geometry" />
        </mxCell>
        <mxCell id="OYgqFkg33m7x1YFqYTqs-3" value="AbstractRepository" style="swimlane;fontStyle=1;align=center;verticalAlign=top;childLayout=stackLayout;horizontal=1;startSize=26;horizontalStack=0;resizeParent=1;resizeParentMax=0;resizeLast=0;collapsible=1;marginBottom=0;whiteSpace=wrap;html=1;" parent="1" vertex="1">
          <mxGeometry x="1339.9999999999998" y="350" width="160" height="60" as="geometry">
            <mxRectangle x="600" y="40" width="100" height="30" as="alternateBounds" />
          </mxGeometry>
        </mxCell>
        <mxCell id="OYgqFkg33m7x1YFqYTqs-5" value="" style="line;strokeWidth=1;fillColor=none;align=left;verticalAlign=middle;spacingTop=-1;spacingLeft=3;spacingRight=3;rotatable=0;labelPosition=right;points=[];portConstraint=eastwest;strokeColor=inherit;" parent="OYgqFkg33m7x1YFqYTqs-3" vertex="1">
          <mxGeometry y="26" width="160" height="8" as="geometry" />
        </mxCell>
        <mxCell id="OYgqFkg33m7x1YFqYTqs-6" value="..." style="text;strokeColor=none;fillColor=none;align=left;verticalAlign=top;spacingLeft=4;spacingRight=4;overflow=hidden;rotatable=0;points=[[0,0.5],[1,0.5]];portConstraint=eastwest;whiteSpace=wrap;html=1;" parent="OYgqFkg33m7x1YFqYTqs-3" vertex="1">
          <mxGeometry y="34" width="160" height="26" as="geometry" />
        </mxCell>
        <mxCell id="cgwD6Vc4o7EYCOfsTwvc-6" style="edgeStyle=orthogonalEdgeStyle;rounded=0;orthogonalLoop=1;jettySize=auto;html=1;" parent="1" source="OYgqFkg33m7x1YFqYTqs-7" target="OYgqFkg33m7x1YFqYTqs-3" edge="1">
          <mxGeometry relative="1" as="geometry">
            <Array as="points">
              <mxPoint x="1278" y="440" />
              <mxPoint x="1420" y="440" />
            </Array>
          </mxGeometry>
        </mxCell>
        <mxCell id="OYgqFkg33m7x1YFqYTqs-7" value="AbstractDatabaseRepository" style="swimlane;fontStyle=1;align=center;verticalAlign=top;childLayout=stackLayout;horizontal=1;startSize=26;horizontalStack=0;resizeParent=1;resizeParentMax=0;resizeLast=0;collapsible=1;marginBottom=0;whiteSpace=wrap;html=1;" parent="1" vertex="1">
          <mxGeometry x="1180" y="459" width="196" height="60" as="geometry" />
        </mxCell>
        <mxCell id="OYgqFkg33m7x1YFqYTqs-9" value="" style="line;strokeWidth=1;fillColor=none;align=left;verticalAlign=middle;spacingTop=-1;spacingLeft=3;spacingRight=3;rotatable=0;labelPosition=right;points=[];portConstraint=eastwest;strokeColor=inherit;" parent="OYgqFkg33m7x1YFqYTqs-7" vertex="1">
          <mxGeometry y="26" width="196" height="8" as="geometry" />
        </mxCell>
        <mxCell id="OYgqFkg33m7x1YFqYTqs-10" value="..." style="text;strokeColor=none;fillColor=none;align=left;verticalAlign=top;spacingLeft=4;spacingRight=4;overflow=hidden;rotatable=0;points=[[0,0.5],[1,0.5]];portConstraint=eastwest;whiteSpace=wrap;html=1;" parent="OYgqFkg33m7x1YFqYTqs-7" vertex="1">
          <mxGeometry y="34" width="196" height="26" as="geometry" />
        </mxCell>
        <mxCell id="cgwD6Vc4o7EYCOfsTwvc-10" style="edgeStyle=orthogonalEdgeStyle;rounded=0;orthogonalLoop=1;jettySize=auto;html=1;" parent="1" source="OYgqFkg33m7x1YFqYTqs-11" target="OYgqFkg33m7x1YFqYTqs-3" edge="1">
          <mxGeometry relative="1" as="geometry">
            <Array as="points">
              <mxPoint x="1632" y="440" />
              <mxPoint x="1420" y="440" />
            </Array>
          </mxGeometry>
        </mxCell>
        <mxCell id="OYgqFkg33m7x1YFqYTqs-11" value="AbstractFileRepository" style="swimlane;fontStyle=1;align=center;verticalAlign=top;childLayout=stackLayout;horizontal=1;startSize=26;horizontalStack=0;resizeParent=1;resizeParentMax=0;resizeLast=0;collapsible=1;marginBottom=0;whiteSpace=wrap;html=1;" parent="1" vertex="1">
          <mxGeometry x="1530.6999999999998" y="459" width="203" height="86" as="geometry" />
        </mxCell>
        <mxCell id="OYgqFkg33m7x1YFqYTqs-12" value="+ filepath: str" style="text;strokeColor=none;fillColor=none;align=left;verticalAlign=top;spacingLeft=4;spacingRight=4;overflow=hidden;rotatable=0;points=[[0,0.5],[1,0.5]];portConstraint=eastwest;whiteSpace=wrap;html=1;" parent="OYgqFkg33m7x1YFqYTqs-11" vertex="1">
          <mxGeometry y="26" width="203" height="26" as="geometry" />
        </mxCell>
        <mxCell id="OYgqFkg33m7x1YFqYTqs-13" value="" style="line;strokeWidth=1;fillColor=none;align=left;verticalAlign=middle;spacingTop=-1;spacingLeft=3;spacingRight=3;rotatable=0;labelPosition=right;points=[];portConstraint=eastwest;strokeColor=inherit;" parent="OYgqFkg33m7x1YFqYTqs-11" vertex="1">
          <mxGeometry y="52" width="203" height="8" as="geometry" />
        </mxCell>
        <mxCell id="OYgqFkg33m7x1YFqYTqs-14" value="..." style="text;strokeColor=none;fillColor=none;align=left;verticalAlign=top;spacingLeft=4;spacingRight=4;overflow=hidden;rotatable=0;points=[[0,0.5],[1,0.5]];portConstraint=eastwest;whiteSpace=wrap;html=1;" parent="OYgqFkg33m7x1YFqYTqs-11" vertex="1">
          <mxGeometry y="60" width="203" height="26" as="geometry" />
        </mxCell>
        <mxCell id="OYgqFkg33m7x1YFqYTqs-29" value="" style="endArrow=none;dashed=1;html=1;rounded=0;exitX=1;exitY=0.346;exitDx=0;exitDy=0;exitPerimeter=0;entryX=0;entryY=0.471;entryDx=0;entryDy=0;entryPerimeter=0;" parent="1" source="OYgqFkg33m7x1YFqYTqs-1" edge="1">
          <mxGeometry width="50" height="50" relative="1" as="geometry">
            <mxPoint x="1651.8200000000002" y="631.8" as="sourcePoint" />
            <mxPoint x="740" y="630.9000000000001" as="targetPoint" />
          </mxGeometry>
        </mxCell>
        <mxCell id="cgwD6Vc4o7EYCOfsTwvc-4" style="edgeStyle=orthogonalEdgeStyle;rounded=0;orthogonalLoop=1;jettySize=auto;html=1;" parent="1" source="OYgqFkg33m7x1YFqYTqs-40" target="OYgqFkg33m7x1YFqYTqs-11" edge="1">
          <mxGeometry relative="1" as="geometry">
            <Array as="points">
              <mxPoint x="1759" y="570" />
              <mxPoint x="1631" y="570" />
            </Array>
          </mxGeometry>
        </mxCell>
        <mxCell id="OYgqFkg33m7x1YFqYTqs-40" value="JsonRepository" style="swimlane;fontStyle=1;align=center;verticalAlign=top;childLayout=stackLayout;horizontal=1;startSize=26;horizontalStack=0;resizeParent=1;resizeParentMax=0;resizeLast=0;collapsible=1;marginBottom=0;whiteSpace=wrap;html=1;" parent="1" vertex="1">
          <mxGeometry x="1643.7" y="640" width="230.7" height="94" as="geometry" />
        </mxCell>
        <mxCell id="OYgqFkg33m7x1YFqYTqs-41" value="+ filepath: str&lt;br style=&quot;border-color: var(--border-color);&quot;&gt;+ mapper: AbstractDomainEntityMapper" style="text;strokeColor=none;fillColor=none;align=left;verticalAlign=top;spacingLeft=4;spacingRight=4;overflow=hidden;rotatable=0;points=[[0,0.5],[1,0.5]];portConstraint=eastwest;whiteSpace=wrap;html=1;" parent="OYgqFkg33m7x1YFqYTqs-40" vertex="1">
          <mxGeometry y="26" width="230.7" height="34" as="geometry" />
        </mxCell>
        <mxCell id="OYgqFkg33m7x1YFqYTqs-42" value="" style="line;strokeWidth=1;fillColor=none;align=left;verticalAlign=middle;spacingTop=-1;spacingLeft=3;spacingRight=3;rotatable=0;labelPosition=right;points=[];portConstraint=eastwest;strokeColor=inherit;" parent="OYgqFkg33m7x1YFqYTqs-40" vertex="1">
          <mxGeometry y="60" width="230.7" height="8" as="geometry" />
        </mxCell>
        <mxCell id="OYgqFkg33m7x1YFqYTqs-43" value="..." style="text;strokeColor=none;fillColor=none;align=left;verticalAlign=top;spacingLeft=4;spacingRight=4;overflow=hidden;rotatable=0;points=[[0,0.5],[1,0.5]];portConstraint=eastwest;whiteSpace=wrap;html=1;" parent="OYgqFkg33m7x1YFqYTqs-40" vertex="1">
          <mxGeometry y="68" width="230.7" height="26" as="geometry" />
        </mxCell>
        <mxCell id="OYgqFkg33m7x1YFqYTqs-50" value="&lt;p style=&quot;margin:0px;margin-top:4px;text-align:center;&quot;&gt;&lt;i&gt;&amp;lt;&amp;lt;Interface&amp;gt;&amp;gt;&lt;/i&gt;&lt;br&gt;&lt;b&gt;IUnitOfWork&lt;/b&gt;&lt;/p&gt;&lt;hr size=&quot;1&quot;&gt;&lt;p style=&quot;margin:0px;margin-left:4px;&quot;&gt;&lt;br&gt;&lt;/p&gt;&lt;hr size=&quot;1&quot;&gt;&lt;p style=&quot;margin:0px;margin-left:4px;&quot;&gt;...&lt;/p&gt;" style="verticalAlign=top;align=left;overflow=fill;fontSize=12;fontFamily=Helvetica;html=1;whiteSpace=wrap;" parent="1" vertex="1">
          <mxGeometry x="812.97" y="335" width="131.2" height="100" as="geometry" />
        </mxCell>
        <mxCell id="OYgqFkg33m7x1YFqYTqs-72" value="" style="endArrow=none;dashed=1;html=1;rounded=0;entryX=1;entryY=0.35;entryDx=0;entryDy=0;entryPerimeter=0;exitX=0;exitY=0.349;exitDx=0;exitDy=0;exitPerimeter=0;" parent="1" source="OYgqFkg33m7x1YFqYTqs-69" target="OYgqFkg33m7x1YFqYTqs-69" edge="1">
          <mxGeometry width="50" height="50" relative="1" as="geometry">
            <mxPoint x="404.03999999999996" y="632.3600000000001" as="sourcePoint" />
            <mxPoint x="721.1599999999999" y="631.04" as="targetPoint" />
          </mxGeometry>
        </mxCell>
        <mxCell id="OYgqFkg33m7x1YFqYTqs-74" value="AbstactStorageSevice" style="swimlane;fontStyle=1;align=center;verticalAlign=top;childLayout=stackLayout;horizontal=1;startSize=26;horizontalStack=0;resizeParent=1;resizeParentMax=0;resizeLast=0;collapsible=1;marginBottom=0;whiteSpace=wrap;html=1;" parent="1" vertex="1">
          <mxGeometry x="482.12" y="454" width="180" height="60" as="geometry" />
        </mxCell>
        <mxCell id="OYgqFkg33m7x1YFqYTqs-76" value="" style="line;strokeWidth=1;fillColor=none;align=left;verticalAlign=middle;spacingTop=-1;spacingLeft=3;spacingRight=3;rotatable=0;labelPosition=right;points=[];portConstraint=eastwest;strokeColor=inherit;" parent="OYgqFkg33m7x1YFqYTqs-74" vertex="1">
          <mxGeometry y="26" width="180" height="8" as="geometry" />
        </mxCell>
        <mxCell id="OYgqFkg33m7x1YFqYTqs-77" value="..." style="text;strokeColor=none;fillColor=none;align=left;verticalAlign=top;spacingLeft=4;spacingRight=4;overflow=hidden;rotatable=0;points=[[0,0.5],[1,0.5]];portConstraint=eastwest;whiteSpace=wrap;html=1;" parent="OYgqFkg33m7x1YFqYTqs-74" vertex="1">
          <mxGeometry y="34" width="180" height="26" as="geometry" />
        </mxCell>
        <mxCell id="OYgqFkg33m7x1YFqYTqs-90" style="edgeStyle=orthogonalEdgeStyle;rounded=0;orthogonalLoop=1;jettySize=auto;html=1;" parent="1" source="OYgqFkg33m7x1YFqYTqs-81" target="OYgqFkg33m7x1YFqYTqs-74" edge="1">
          <mxGeometry relative="1" as="geometry">
            <Array as="points">
              <mxPoint x="620" y="680" />
              <mxPoint x="572" y="680" />
            </Array>
          </mxGeometry>
        </mxCell>
        <mxCell id="OYgqFkg33m7x1YFqYTqs-81" value="DatabaseService" style="swimlane;fontStyle=1;align=center;verticalAlign=top;childLayout=stackLayout;horizontal=1;startSize=26;horizontalStack=0;resizeParent=1;resizeParentMax=0;resizeLast=0;collapsible=1;marginBottom=0;whiteSpace=wrap;html=1;" parent="1" vertex="1">
          <mxGeometry x="529.65" y="985" width="158.97" height="86" as="geometry" />
        </mxCell>
        <mxCell id="OYgqFkg33m7x1YFqYTqs-82" value="+ uow: WeatherUnitOfWork" style="text;strokeColor=none;fillColor=none;align=left;verticalAlign=top;spacingLeft=4;spacingRight=4;overflow=hidden;rotatable=0;points=[[0,0.5],[1,0.5]];portConstraint=eastwest;whiteSpace=wrap;html=1;" parent="OYgqFkg33m7x1YFqYTqs-81" vertex="1">
          <mxGeometry y="26" width="158.97" height="26" as="geometry" />
        </mxCell>
        <mxCell id="OYgqFkg33m7x1YFqYTqs-83" value="" style="line;strokeWidth=1;fillColor=none;align=left;verticalAlign=middle;spacingTop=-1;spacingLeft=3;spacingRight=3;rotatable=0;labelPosition=right;points=[];portConstraint=eastwest;strokeColor=inherit;" parent="OYgqFkg33m7x1YFqYTqs-81" vertex="1">
          <mxGeometry y="52" width="158.97" height="8" as="geometry" />
        </mxCell>
        <mxCell id="OYgqFkg33m7x1YFqYTqs-84" value="..." style="text;strokeColor=none;fillColor=none;align=left;verticalAlign=top;spacingLeft=4;spacingRight=4;overflow=hidden;rotatable=0;points=[[0,0.5],[1,0.5]];portConstraint=eastwest;whiteSpace=wrap;html=1;" parent="OYgqFkg33m7x1YFqYTqs-81" vertex="1">
          <mxGeometry y="60" width="158.97" height="26" as="geometry" />
        </mxCell>
        <mxCell id="cgwD6Vc4o7EYCOfsTwvc-62" style="edgeStyle=orthogonalEdgeStyle;rounded=0;orthogonalLoop=1;jettySize=auto;html=1;" parent="1" source="OYgqFkg33m7x1YFqYTqs-85" target="OYgqFkg33m7x1YFqYTqs-74" edge="1">
          <mxGeometry relative="1" as="geometry">
            <Array as="points">
              <mxPoint x="489" y="680" />
              <mxPoint x="572" y="680" />
            </Array>
          </mxGeometry>
        </mxCell>
        <mxCell id="gb8FqWn3YgWelBB0Mvwm-2" value="APIClientSevice" style="swimlane;fontStyle=1;align=center;verticalAlign=top;childLayout=stackLayout;horizontal=1;startSize=26;horizontalStack=0;resizeParent=1;resizeParentMax=0;resizeLast=0;collapsible=1;marginBottom=0;whiteSpace=wrap;html=1;" parent="1" vertex="1">
          <mxGeometry x="400.51" y="66" width="180" height="60" as="geometry" />
        </mxCell>
        <mxCell id="gb8FqWn3YgWelBB0Mvwm-3" value="" style="line;strokeWidth=1;fillColor=none;align=left;verticalAlign=middle;spacingTop=-1;spacingLeft=3;spacingRight=3;rotatable=0;labelPosition=right;points=[];portConstraint=eastwest;strokeColor=inherit;" parent="gb8FqWn3YgWelBB0Mvwm-2" vertex="1">
          <mxGeometry y="26" width="180" height="8" as="geometry" />
        </mxCell>
        <mxCell id="gb8FqWn3YgWelBB0Mvwm-4" value="..." style="text;strokeColor=none;fillColor=none;align=left;verticalAlign=top;spacingLeft=4;spacingRight=4;overflow=hidden;rotatable=0;points=[[0,0.5],[1,0.5]];portConstraint=eastwest;whiteSpace=wrap;html=1;" parent="gb8FqWn3YgWelBB0Mvwm-2" vertex="1">
          <mxGeometry y="34" width="180" height="26" as="geometry" />
        </mxCell>
        <mxCell id="gb8FqWn3YgWelBB0Mvwm-6" value="" style="endArrow=none;dashed=1;html=1;rounded=0;entryX=-0.016;entryY=0.466;entryDx=0;entryDy=0;entryPerimeter=0;exitX=0.995;exitY=0.467;exitDx=0;exitDy=0;exitPerimeter=0;" parent="1" source="gb8FqWn3YgWelBB0Mvwm-1" target="gb8FqWn3YgWelBB0Mvwm-1" edge="1">
          <mxGeometry width="50" height="50" relative="1" as="geometry">
            <mxPoint x="722.12" y="189" as="sourcePoint" />
            <mxPoint x="522.12" y="191" as="targetPoint" />
          </mxGeometry>
        </mxCell>
        <mxCell id="gb8FqWn3YgWelBB0Mvwm-14" style="edgeStyle=orthogonalEdgeStyle;rounded=0;orthogonalLoop=1;jettySize=auto;html=1;" parent="1" source="gb8FqWn3YgWelBB0Mvwm-10" target="gb8FqWn3YgWelBB0Mvwm-2" edge="1">
          <mxGeometry relative="1" as="geometry" />
        </mxCell>
        <mxCell id="gb8FqWn3YgWelBB0Mvwm-10" value="OpenweathermapByCityAPIClient" style="swimlane;fontStyle=1;align=center;verticalAlign=top;childLayout=stackLayout;horizontal=1;startSize=26;horizontalStack=0;resizeParent=1;resizeParentMax=0;resizeLast=0;collapsible=1;marginBottom=0;whiteSpace=wrap;html=1;" parent="1" vertex="1">
          <mxGeometry x="360.01" y="201" width="261" height="86" as="geometry" />
        </mxCell>
        <mxCell id="gb8FqWn3YgWelBB0Mvwm-11" value="+ api_key: str" style="text;strokeColor=none;fillColor=none;align=left;verticalAlign=top;spacingLeft=4;spacingRight=4;overflow=hidden;rotatable=0;points=[[0,0.5],[1,0.5]];portConstraint=eastwest;whiteSpace=wrap;html=1;" parent="gb8FqWn3YgWelBB0Mvwm-10" vertex="1">
          <mxGeometry y="26" width="261" height="26" as="geometry" />
        </mxCell>
        <mxCell id="gb8FqWn3YgWelBB0Mvwm-12" value="" style="line;strokeWidth=1;fillColor=none;align=left;verticalAlign=middle;spacingTop=-1;spacingLeft=3;spacingRight=3;rotatable=0;labelPosition=right;points=[];portConstraint=eastwest;strokeColor=inherit;" parent="gb8FqWn3YgWelBB0Mvwm-10" vertex="1">
          <mxGeometry y="52" width="261" height="8" as="geometry" />
        </mxCell>
        <mxCell id="gb8FqWn3YgWelBB0Mvwm-13" value="..." style="text;strokeColor=none;fillColor=none;align=left;verticalAlign=top;spacingLeft=4;spacingRight=4;overflow=hidden;rotatable=0;points=[[0,0.5],[1,0.5]];portConstraint=eastwest;whiteSpace=wrap;html=1;" parent="gb8FqWn3YgWelBB0Mvwm-10" vertex="1">
          <mxGeometry y="60" width="261" height="26" as="geometry" />
        </mxCell>
        <mxCell id="gb8FqWn3YgWelBB0Mvwm-23" value="AbstractDTOMapper" style="swimlane;fontStyle=1;align=center;verticalAlign=top;childLayout=stackLayout;horizontal=1;startSize=26;horizontalStack=0;resizeParent=1;resizeParentMax=0;resizeLast=0;collapsible=1;marginBottom=0;whiteSpace=wrap;html=1;" parent="1" vertex="1">
          <mxGeometry x="369.65" y="1290" width="160" height="60" as="geometry" />
        </mxCell>
        <mxCell id="gb8FqWn3YgWelBB0Mvwm-25" value="" style="line;strokeWidth=1;fillColor=none;align=left;verticalAlign=middle;spacingTop=-1;spacingLeft=3;spacingRight=3;rotatable=0;labelPosition=right;points=[];portConstraint=eastwest;strokeColor=inherit;" parent="gb8FqWn3YgWelBB0Mvwm-23" vertex="1">
          <mxGeometry y="26" width="160" height="8" as="geometry" />
        </mxCell>
        <mxCell id="gb8FqWn3YgWelBB0Mvwm-26" value="..." style="text;strokeColor=none;fillColor=none;align=left;verticalAlign=top;spacingLeft=4;spacingRight=4;overflow=hidden;rotatable=0;points=[[0,0.5],[1,0.5]];portConstraint=eastwest;whiteSpace=wrap;html=1;" parent="gb8FqWn3YgWelBB0Mvwm-23" vertex="1">
          <mxGeometry y="34" width="160" height="26" as="geometry" />
        </mxCell>
        <mxCell id="gb8FqWn3YgWelBB0Mvwm-61" style="edgeStyle=orthogonalEdgeStyle;rounded=0;orthogonalLoop=1;jettySize=auto;html=1;" parent="1" source="gb8FqWn3YgWelBB0Mvwm-27" target="gb8FqWn3YgWelBB0Mvwm-23" edge="1">
          <mxGeometry relative="1" as="geometry" />
        </mxCell>
        <mxCell id="gb8FqWn3YgWelBB0Mvwm-27" value="OpenweathermapWeatherMapper" style="swimlane;fontStyle=1;align=center;verticalAlign=top;childLayout=stackLayout;horizontal=1;startSize=26;horizontalStack=0;resizeParent=1;resizeParentMax=0;resizeLast=0;collapsible=1;marginBottom=0;whiteSpace=wrap;html=1;" parent="1" vertex="1">
          <mxGeometry x="334.21" y="1386" width="230.88" height="60" as="geometry" />
        </mxCell>
        <mxCell id="gb8FqWn3YgWelBB0Mvwm-28" value="" style="line;strokeWidth=1;fillColor=none;align=left;verticalAlign=middle;spacingTop=-1;spacingLeft=3;spacingRight=3;rotatable=0;labelPosition=right;points=[];portConstraint=eastwest;strokeColor=inherit;" parent="gb8FqWn3YgWelBB0Mvwm-27" vertex="1">
          <mxGeometry y="26" width="230.88" height="8" as="geometry" />
        </mxCell>
        <mxCell id="gb8FqWn3YgWelBB0Mvwm-29" value="..." style="text;strokeColor=none;fillColor=none;align=left;verticalAlign=top;spacingLeft=4;spacingRight=4;overflow=hidden;rotatable=0;points=[[0,0.5],[1,0.5]];portConstraint=eastwest;whiteSpace=wrap;html=1;" parent="gb8FqWn3YgWelBB0Mvwm-27" vertex="1">
          <mxGeometry y="34" width="230.88" height="26" as="geometry" />
        </mxCell>
        <mxCell id="gb8FqWn3YgWelBB0Mvwm-30" value="AbstractDomainEntityMapper" style="swimlane;fontStyle=1;align=center;verticalAlign=top;childLayout=stackLayout;horizontal=1;startSize=26;horizontalStack=0;resizeParent=1;resizeParentMax=0;resizeLast=0;collapsible=1;marginBottom=0;whiteSpace=wrap;html=1;" parent="1" vertex="1">
          <mxGeometry x="1429.0500000000002" y="1280" width="200" height="60" as="geometry" />
        </mxCell>
        <mxCell id="gb8FqWn3YgWelBB0Mvwm-31" value="" style="line;strokeWidth=1;fillColor=none;align=left;verticalAlign=middle;spacingTop=-1;spacingLeft=3;spacingRight=3;rotatable=0;labelPosition=right;points=[];portConstraint=eastwest;strokeColor=inherit;" parent="gb8FqWn3YgWelBB0Mvwm-30" vertex="1">
          <mxGeometry y="26" width="200" height="8" as="geometry" />
        </mxCell>
        <mxCell id="gb8FqWn3YgWelBB0Mvwm-32" value="..." style="text;strokeColor=none;fillColor=none;align=left;verticalAlign=top;spacingLeft=4;spacingRight=4;overflow=hidden;rotatable=0;points=[[0,0.5],[1,0.5]];portConstraint=eastwest;whiteSpace=wrap;html=1;" parent="gb8FqWn3YgWelBB0Mvwm-30" vertex="1">
          <mxGeometry y="34" width="200" height="26" as="geometry" />
        </mxCell>
        <mxCell id="cgwD6Vc4o7EYCOfsTwvc-55" style="edgeStyle=orthogonalEdgeStyle;rounded=0;orthogonalLoop=1;jettySize=auto;html=1;" parent="1" source="gb8FqWn3YgWelBB0Mvwm-43" target="gb8FqWn3YgWelBB0Mvwm-30" edge="1">
          <mxGeometry relative="1" as="geometry">
            <Array as="points">
              <mxPoint x="1280" y="1370" />
              <mxPoint x="1529" y="1370" />
            </Array>
          </mxGeometry>
        </mxCell>
        <mxCell id="gb8FqWn3YgWelBB0Mvwm-43" value="WeatherDatabaseMapper" style="swimlane;fontStyle=1;align=center;verticalAlign=top;childLayout=stackLayout;horizontal=1;startSize=26;horizontalStack=0;resizeParent=1;resizeParentMax=0;resizeLast=0;collapsible=1;marginBottom=0;whiteSpace=wrap;html=1;" parent="1" vertex="1">
          <mxGeometry x="1180" y="1386" width="200" height="60" as="geometry" />
        </mxCell>
        <mxCell id="gb8FqWn3YgWelBB0Mvwm-44" value="" style="line;strokeWidth=1;fillColor=none;align=left;verticalAlign=middle;spacingTop=-1;spacingLeft=3;spacingRight=3;rotatable=0;labelPosition=right;points=[];portConstraint=eastwest;strokeColor=inherit;" parent="gb8FqWn3YgWelBB0Mvwm-43" vertex="1">
          <mxGeometry y="26" width="200" height="8" as="geometry" />
        </mxCell>
        <mxCell id="gb8FqWn3YgWelBB0Mvwm-45" value="..." style="text;strokeColor=none;fillColor=none;align=left;verticalAlign=top;spacingLeft=4;spacingRight=4;overflow=hidden;rotatable=0;points=[[0,0.5],[1,0.5]];portConstraint=eastwest;whiteSpace=wrap;html=1;" parent="gb8FqWn3YgWelBB0Mvwm-43" vertex="1">
          <mxGeometry y="34" width="200" height="26" as="geometry" />
        </mxCell>
        <mxCell id="gb8FqWn3YgWelBB0Mvwm-58" style="edgeStyle=orthogonalEdgeStyle;rounded=0;orthogonalLoop=1;jettySize=auto;html=1;" parent="1" source="gb8FqWn3YgWelBB0Mvwm-46" target="gb8FqWn3YgWelBB0Mvwm-30" edge="1">
          <mxGeometry relative="1" as="geometry" />
        </mxCell>
        <mxCell id="gb8FqWn3YgWelBB0Mvwm-46" value="TextfileMapper" style="swimlane;fontStyle=1;align=center;verticalAlign=top;childLayout=stackLayout;horizontal=1;startSize=26;horizontalStack=0;resizeParent=1;resizeParentMax=0;resizeLast=0;collapsible=1;marginBottom=0;whiteSpace=wrap;html=1;" parent="1" vertex="1">
          <mxGeometry x="1429.05" y="1386" width="200" height="60" as="geometry" />
        </mxCell>
        <mxCell id="gb8FqWn3YgWelBB0Mvwm-47" value="" style="line;strokeWidth=1;fillColor=none;align=left;verticalAlign=middle;spacingTop=-1;spacingLeft=3;spacingRight=3;rotatable=0;labelPosition=right;points=[];portConstraint=eastwest;strokeColor=inherit;" parent="gb8FqWn3YgWelBB0Mvwm-46" vertex="1">
          <mxGeometry y="26" width="200" height="8" as="geometry" />
        </mxCell>
        <mxCell id="gb8FqWn3YgWelBB0Mvwm-48" value="..." style="text;strokeColor=none;fillColor=none;align=left;verticalAlign=top;spacingLeft=4;spacingRight=4;overflow=hidden;rotatable=0;points=[[0,0.5],[1,0.5]];portConstraint=eastwest;whiteSpace=wrap;html=1;" parent="gb8FqWn3YgWelBB0Mvwm-46" vertex="1">
          <mxGeometry y="34" width="200" height="26" as="geometry" />
        </mxCell>
        <mxCell id="gb8FqWn3YgWelBB0Mvwm-60" style="edgeStyle=orthogonalEdgeStyle;rounded=0;orthogonalLoop=1;jettySize=auto;html=1;" parent="1" source="gb8FqWn3YgWelBB0Mvwm-49" target="gb8FqWn3YgWelBB0Mvwm-30" edge="1">
          <mxGeometry relative="1" as="geometry">
            <Array as="points">
              <mxPoint x="1650" y="1370" />
              <mxPoint x="1372" y="1370" />
            </Array>
          </mxGeometry>
        </mxCell>
        <mxCell id="gb8FqWn3YgWelBB0Mvwm-49" value="JsonMapper" style="swimlane;fontStyle=1;align=center;verticalAlign=top;childLayout=stackLayout;horizontal=1;startSize=26;horizontalStack=0;resizeParent=1;resizeParentMax=0;resizeLast=0;collapsible=1;marginBottom=0;whiteSpace=wrap;html=1;" parent="1" vertex="1">
          <mxGeometry x="1670" y="1386" width="200" height="60" as="geometry" />
        </mxCell>
        <mxCell id="gb8FqWn3YgWelBB0Mvwm-50" value="" style="line;strokeWidth=1;fillColor=none;align=left;verticalAlign=middle;spacingTop=-1;spacingLeft=3;spacingRight=3;rotatable=0;labelPosition=right;points=[];portConstraint=eastwest;strokeColor=inherit;" parent="gb8FqWn3YgWelBB0Mvwm-49" vertex="1">
          <mxGeometry y="26" width="200" height="8" as="geometry" />
        </mxCell>
        <mxCell id="gb8FqWn3YgWelBB0Mvwm-51" value="..." style="text;strokeColor=none;fillColor=none;align=left;verticalAlign=top;spacingLeft=4;spacingRight=4;overflow=hidden;rotatable=0;points=[[0,0.5],[1,0.5]];portConstraint=eastwest;whiteSpace=wrap;html=1;" parent="gb8FqWn3YgWelBB0Mvwm-49" vertex="1">
          <mxGeometry y="34" width="200" height="26" as="geometry" />
        </mxCell>
        <mxCell id="gb8FqWn3YgWelBB0Mvwm-56" value="" style="endArrow=none;dashed=1;html=1;rounded=0;exitX=0.271;exitY=1.02;exitDx=0;exitDy=0;exitPerimeter=0;entryX=0.272;entryY=-0.001;entryDx=0;entryDy=0;entryPerimeter=0;" parent="1" edge="1">
          <mxGeometry width="50" height="50" relative="1" as="geometry">
            <mxPoint x="730.2080000000001" y="1469.74" as="sourcePoint" />
            <mxPoint x="731.4560000000001" y="1227.763" as="targetPoint" />
          </mxGeometry>
        </mxCell>
        <mxCell id="gb8FqWn3YgWelBB0Mvwm-65" value="MasterService" style="swimlane;fontStyle=1;align=center;verticalAlign=top;childLayout=stackLayout;horizontal=1;startSize=26;horizontalStack=0;resizeParent=1;resizeParentMax=0;resizeLast=0;collapsible=1;marginBottom=0;whiteSpace=wrap;html=1;" parent="1" vertex="1">
          <mxGeometry x="-150" y="594" width="310" height="114" as="geometry" />
        </mxCell>
        <mxCell id="gb8FqWn3YgWelBB0Mvwm-66" value="+ weather_client: APIClientService&lt;br&gt;+ client_storage_mapper: AbstractDTOMapper&lt;br&gt;+&amp;nbsp;storage_services_manager: StorageServiceManager" style="text;strokeColor=none;fillColor=none;align=left;verticalAlign=top;spacingLeft=4;spacingRight=4;overflow=hidden;rotatable=0;points=[[0,0.5],[1,0.5]];portConstraint=eastwest;whiteSpace=wrap;html=1;" parent="gb8FqWn3YgWelBB0Mvwm-65" vertex="1">
          <mxGeometry y="26" width="310" height="54" as="geometry" />
        </mxCell>
        <mxCell id="gb8FqWn3YgWelBB0Mvwm-67" value="" style="line;strokeWidth=1;fillColor=none;align=left;verticalAlign=middle;spacingTop=-1;spacingLeft=3;spacingRight=3;rotatable=0;labelPosition=right;points=[];portConstraint=eastwest;strokeColor=inherit;" parent="gb8FqWn3YgWelBB0Mvwm-65" vertex="1">
          <mxGeometry y="80" width="310" height="8" as="geometry" />
        </mxCell>
        <mxCell id="gb8FqWn3YgWelBB0Mvwm-68" value="+ start(None): None" style="text;strokeColor=none;fillColor=none;align=left;verticalAlign=top;spacingLeft=4;spacingRight=4;overflow=hidden;rotatable=0;points=[[0,0.5],[1,0.5]];portConstraint=eastwest;whiteSpace=wrap;html=1;" parent="gb8FqWn3YgWelBB0Mvwm-65" vertex="1">
          <mxGeometry y="88" width="310" height="26" as="geometry" />
        </mxCell>
        <mxCell id="6Z-7mK7u9qymeT9xuxMa-1" value="&lt;font style=&quot;font-size: 20px;&quot;&gt;apiclients&lt;/font&gt;" style="text;html=1;strokeColor=none;fillColor=none;align=center;verticalAlign=middle;whiteSpace=wrap;rounded=0;" parent="1" vertex="1">
          <mxGeometry x="250.00000000000003" y="26" width="98.03" height="30" as="geometry" />
        </mxCell>
        <mxCell id="6Z-7mK7u9qymeT9xuxMa-3" value="&lt;font style=&quot;font-size: 20px;&quot;&gt;repositories&lt;/font&gt;" style="text;html=1;strokeColor=none;fillColor=none;align=center;verticalAlign=middle;whiteSpace=wrap;rounded=0;" parent="1" vertex="1">
          <mxGeometry x="1051.3500000000001" y="320" width="113" height="26" as="geometry" />
        </mxCell>
        <mxCell id="6Z-7mK7u9qymeT9xuxMa-4" value="&lt;font style=&quot;font-size: 20px;&quot;&gt;storage_services&lt;/font&gt;" style="text;html=1;strokeColor=none;fillColor=none;align=center;verticalAlign=middle;whiteSpace=wrap;rounded=0;" parent="1" vertex="1">
          <mxGeometry x="249.99999999999997" y="320" width="169.91" height="26" as="geometry" />
        </mxCell>
        <mxCell id="6Z-7mK7u9qymeT9xuxMa-5" value="&lt;font style=&quot;font-size: 20px;&quot;&gt;mappers&lt;/font&gt;" style="text;html=1;strokeColor=none;fillColor=none;align=center;verticalAlign=middle;whiteSpace=wrap;rounded=0;" parent="1" vertex="1">
          <mxGeometry x="249.99999999999997" y="1228" width="99.91" height="30" as="geometry" />
        </mxCell>
        <mxCell id="6Z-7mK7u9qymeT9xuxMa-7" value="&lt;font style=&quot;font-size: 20px;&quot;&gt;master.py&lt;/font&gt;" style="text;html=1;strokeColor=none;fillColor=none;align=center;verticalAlign=middle;whiteSpace=wrap;rounded=0;" parent="1" vertex="1">
          <mxGeometry x="-160" y="519" width="110" height="25" as="geometry" />
        </mxCell>
        <mxCell id="BSPoM7POIrOYHgiOGZGu-1" value="&lt;font color=&quot;#ffffff&quot;&gt;WeatherDomain&lt;/font&gt;" style="shape=callout;whiteSpace=wrap;html=1;perimeter=calloutPerimeter;fillColor=#fa6800;fontColor=#000000;strokeColor=#C73500;" parent="1" vertex="1">
          <mxGeometry x="40" y="547" width="100" height="61" as="geometry" />
        </mxCell>
        <mxCell id="BSPoM7POIrOYHgiOGZGu-2" value="&lt;font color=&quot;#ffffff&quot;&gt;WeatherDomain&lt;/font&gt;" style="shape=callout;whiteSpace=wrap;html=1;perimeter=calloutPerimeter;fillColor=#fa6800;fontColor=#000000;strokeColor=#C73500;" parent="1" vertex="1">
          <mxGeometry x="622.12" y="949" width="100" height="61" as="geometry" />
        </mxCell>
        <mxCell id="BSPoM7POIrOYHgiOGZGu-5" value="&lt;font color=&quot;#ffffff&quot;&gt;JsonEntity&lt;/font&gt;" style="shape=callout;whiteSpace=wrap;html=1;perimeter=calloutPerimeter;fillColor=#e51400;fontColor=#ffffff;strokeColor=#B20000;" parent="1" vertex="1">
          <mxGeometry x="1790" y="599" width="90" height="60" as="geometry" />
        </mxCell>
        <mxCell id="BSPoM7POIrOYHgiOGZGu-6" value="&lt;font color=&quot;#ffffff&quot;&gt;JsonOpenweathermapResponseDTO&lt;/font&gt;" style="shape=callout;whiteSpace=wrap;html=1;perimeter=calloutPerimeter;fillColor=#76608a;fontColor=#ffffff;strokeColor=#432D57;" parent="1" vertex="1">
          <mxGeometry x="502.12" y="160" width="224.88" height="60" as="geometry" />
        </mxCell>
        <mxCell id="cgwD6Vc4o7EYCOfsTwvc-3" style="edgeStyle=orthogonalEdgeStyle;rounded=0;orthogonalLoop=1;jettySize=auto;html=1;" parent="1" source="OYgqFkg33m7x1YFqYTqs-36" target="OYgqFkg33m7x1YFqYTqs-11" edge="1">
          <mxGeometry relative="1" as="geometry">
            <Array as="points">
              <mxPoint x="1529" y="570" />
              <mxPoint x="1631" y="570" />
            </Array>
          </mxGeometry>
        </mxCell>
        <mxCell id="OYgqFkg33m7x1YFqYTqs-36" value="TextfileRepository" style="swimlane;fontStyle=1;align=center;verticalAlign=top;childLayout=stackLayout;horizontal=1;startSize=26;horizontalStack=0;resizeParent=1;resizeParentMax=0;resizeLast=0;collapsible=1;marginBottom=0;whiteSpace=wrap;html=1;" parent="1" vertex="1">
          <mxGeometry x="1414.4" y="750" width="229.3" height="94" as="geometry" />
        </mxCell>
        <mxCell id="OYgqFkg33m7x1YFqYTqs-37" value="+ filepath: str&lt;br style=&quot;border-color: var(--border-color);&quot;&gt;+ mapper: AbstractDomainEntityMapper" style="text;strokeColor=none;fillColor=none;align=left;verticalAlign=top;spacingLeft=4;spacingRight=4;overflow=hidden;rotatable=0;points=[[0,0.5],[1,0.5]];portConstraint=eastwest;whiteSpace=wrap;html=1;" parent="OYgqFkg33m7x1YFqYTqs-36" vertex="1">
          <mxGeometry y="26" width="229.3" height="34" as="geometry" />
        </mxCell>
        <mxCell id="OYgqFkg33m7x1YFqYTqs-38" value="" style="line;strokeWidth=1;fillColor=none;align=left;verticalAlign=middle;spacingTop=-1;spacingLeft=3;spacingRight=3;rotatable=0;labelPosition=right;points=[];portConstraint=eastwest;strokeColor=inherit;" parent="OYgqFkg33m7x1YFqYTqs-36" vertex="1">
          <mxGeometry y="60" width="229.3" height="8" as="geometry" />
        </mxCell>
        <mxCell id="OYgqFkg33m7x1YFqYTqs-39" value="..." style="text;strokeColor=none;fillColor=none;align=left;verticalAlign=top;spacingLeft=4;spacingRight=4;overflow=hidden;rotatable=0;points=[[0,0.5],[1,0.5]];portConstraint=eastwest;whiteSpace=wrap;html=1;" parent="OYgqFkg33m7x1YFqYTqs-36" vertex="1">
          <mxGeometry y="68" width="229.3" height="26" as="geometry" />
        </mxCell>
        <mxCell id="BSPoM7POIrOYHgiOGZGu-4" value="&lt;font color=&quot;#ffffff&quot;&gt;TextfileEntity&lt;/font&gt;" style="shape=callout;whiteSpace=wrap;html=1;perimeter=calloutPerimeter;fillColor=#e51400;fontColor=#ffffff;strokeColor=#B20000;" parent="1" vertex="1">
          <mxGeometry x="1570" y="708" width="90" height="60" as="geometry" />
        </mxCell>
        <mxCell id="a3Gb8fNIwVNxjmqMn_H6-22" style="edgeStyle=orthogonalEdgeStyle;rounded=0;orthogonalLoop=1;jettySize=auto;html=1;entryX=0.5;entryY=1;entryDx=0;entryDy=0;" parent="1" source="a3Gb8fNIwVNxjmqMn_H6-10" target="OYgqFkg33m7x1YFqYTqs-50" edge="1">
          <mxGeometry relative="1" as="geometry" />
        </mxCell>
        <mxCell id="a3Gb8fNIwVNxjmqMn_H6-23" style="edgeStyle=orthogonalEdgeStyle;rounded=0;orthogonalLoop=1;jettySize=auto;html=1;entryX=0.5;entryY=1;entryDx=0;entryDy=0;" parent="1" source="a3Gb8fNIwVNxjmqMn_H6-15" target="a3Gb8fNIwVNxjmqMn_H6-10" edge="1">
          <mxGeometry relative="1" as="geometry" />
        </mxCell>
        <mxCell id="a3Gb8fNIwVNxjmqMn_H6-28" value="" style="rounded=0;whiteSpace=wrap;html=1;fillColor=#fff2cc;strokeColor=#d6b656;" parent="1" vertex="1">
          <mxGeometry x="730" y="1479" width="300" height="270" as="geometry" />
        </mxCell>
        <mxCell id="a3Gb8fNIwVNxjmqMn_H6-29" value="&lt;font style=&quot;font-size: 20px;&quot;&gt;database&lt;/font&gt;" style="text;html=1;strokeColor=none;fillColor=none;align=center;verticalAlign=middle;whiteSpace=wrap;rounded=0;" parent="1" vertex="1">
          <mxGeometry x="732" y="1482" width="99.91" height="30" as="geometry" />
        </mxCell>
        <mxCell id="a3Gb8fNIwVNxjmqMn_H6-30" value="Database" style="swimlane;fontStyle=1;align=center;verticalAlign=top;childLayout=stackLayout;horizontal=1;startSize=26;horizontalStack=0;resizeParent=1;resizeParentMax=0;resizeLast=0;collapsible=1;marginBottom=0;whiteSpace=wrap;html=1;" parent="1" vertex="1">
          <mxGeometry x="762.4299999999998" y="1529" width="237.15" height="110" as="geometry" />
        </mxCell>
        <mxCell id="a3Gb8fNIwVNxjmqMn_H6-31" value="+ db_url: str" style="text;strokeColor=none;fillColor=none;align=left;verticalAlign=top;spacingLeft=4;spacingRight=4;overflow=hidden;rotatable=0;points=[[0,0.5],[1,0.5]];portConstraint=eastwest;whiteSpace=wrap;html=1;" parent="a3Gb8fNIwVNxjmqMn_H6-30" vertex="1">
          <mxGeometry y="26" width="237.15" height="24" as="geometry" />
        </mxCell>
        <mxCell id="a3Gb8fNIwVNxjmqMn_H6-32" value="" style="line;strokeWidth=1;fillColor=none;align=left;verticalAlign=middle;spacingTop=-1;spacingLeft=3;spacingRight=3;rotatable=0;labelPosition=right;points=[];portConstraint=eastwest;strokeColor=inherit;" parent="a3Gb8fNIwVNxjmqMn_H6-30" vertex="1">
          <mxGeometry y="50" width="237.15" height="8" as="geometry" />
        </mxCell>
        <mxCell id="a3Gb8fNIwVNxjmqMn_H6-33" value="+&amp;nbsp;create_database(self) -&amp;gt; None&lt;br&gt;+&amp;nbsp;session_cm(self) -&amp;gt; AbstractContextManager[AsyncSession]" style="text;strokeColor=none;fillColor=none;align=left;verticalAlign=top;spacingLeft=4;spacingRight=4;overflow=hidden;rotatable=0;points=[[0,0.5],[1,0.5]];portConstraint=eastwest;whiteSpace=wrap;html=1;" parent="a3Gb8fNIwVNxjmqMn_H6-30" vertex="1">
          <mxGeometry y="58" width="237.15" height="52" as="geometry" />
        </mxCell>
        <mxCell id="tfglKuLKTxrIHlvx-Co_-5" value="weather_db" style="swimlane;" parent="1" vertex="1">
          <mxGeometry x="1407" y="887" width="100" height="80" as="geometry" />
        </mxCell>
        <mxCell id="tfglKuLKTxrIHlvx-Co_-13" value="database" style="swimlane;fontStyle=1;align=center;verticalAlign=top;childLayout=stackLayout;horizontal=1;startSize=26;horizontalStack=0;resizeParent=1;resizeParentMax=0;resizeLast=0;collapsible=1;marginBottom=0;whiteSpace=wrap;html=1;swimlaneFillColor=none;shadow=0;" parent="1" vertex="1">
          <mxGeometry x="1059.9999999999998" y="1512" width="237.15" height="88" as="geometry" />
        </mxCell>
        <mxCell id="tfglKuLKTxrIHlvx-Co_-14" value="+ _async_session_factory:&amp;nbsp;&lt;br style=&quot;border-color: var(--border-color);&quot;&gt;AbstractContextManager[AsyncSession]&lt;br style=&quot;border-color: var(--border-color);&quot;&gt;+ _mapper: AbstractDomainEntityMapper" style="text;align=left;verticalAlign=top;spacingLeft=4;spacingRight=4;overflow=hidden;rotatable=0;points=[[0,0.5],[1,0.5]];portConstraint=eastwest;whiteSpace=wrap;html=1;swimlaneFillColor=none;shadow=0;" parent="tfglKuLKTxrIHlvx-Co_-13" vertex="1">
          <mxGeometry y="26" width="237.15" height="54" as="geometry" />
        </mxCell>
        <mxCell id="tfglKuLKTxrIHlvx-Co_-15" value="" style="line;strokeWidth=1;align=left;verticalAlign=middle;spacingTop=-1;spacingLeft=3;spacingRight=3;rotatable=0;labelPosition=right;points=[];portConstraint=eastwest;swimlaneFillColor=none;shadow=0;" parent="tfglKuLKTxrIHlvx-Co_-13" vertex="1">
          <mxGeometry y="80" width="237.15" height="8" as="geometry" />
        </mxCell>
        <mxCell id="tfglKuLKTxrIHlvx-Co_-17" value="database_test" style="swimlane;fontStyle=1;align=center;verticalAlign=top;childLayout=stackLayout;horizontal=1;startSize=26;horizontalStack=0;resizeParent=1;resizeParentMax=0;resizeLast=0;collapsible=1;marginBottom=0;whiteSpace=wrap;html=1;swimlaneFillColor=none;shadow=0;" parent="1" vertex="1">
          <mxGeometry x="1059.9999999999998" y="1635" width="237.15" height="88" as="geometry" />
        </mxCell>
        <mxCell id="tfglKuLKTxrIHlvx-Co_-18" value="+ _async_session_factory:&amp;nbsp;&lt;br style=&quot;border-color: var(--border-color);&quot;&gt;AbstractContextManager[AsyncSession]&lt;br style=&quot;border-color: var(--border-color);&quot;&gt;+ _mapper: AbstractDomainEntityMapper" style="text;align=left;verticalAlign=top;spacingLeft=4;spacingRight=4;overflow=hidden;rotatable=0;points=[[0,0.5],[1,0.5]];portConstraint=eastwest;whiteSpace=wrap;html=1;swimlaneFillColor=none;shadow=0;" parent="tfglKuLKTxrIHlvx-Co_-17" vertex="1">
          <mxGeometry y="26" width="237.15" height="54" as="geometry" />
        </mxCell>
        <mxCell id="tfglKuLKTxrIHlvx-Co_-19" value="" style="line;strokeWidth=1;align=left;verticalAlign=middle;spacingTop=-1;spacingLeft=3;spacingRight=3;rotatable=0;labelPosition=right;points=[];portConstraint=eastwest;swimlaneFillColor=none;shadow=0;" parent="tfglKuLKTxrIHlvx-Co_-17" vertex="1">
          <mxGeometry y="80" width="237.15" height="8" as="geometry" />
        </mxCell>
        <mxCell id="cgwD6Vc4o7EYCOfsTwvc-14" value="DatabaseRepositoriesManager" style="swimlane;fontStyle=1;align=center;verticalAlign=top;childLayout=stackLayout;horizontal=1;startSize=26;horizontalStack=0;resizeParent=1;resizeParentMax=0;resizeLast=0;collapsible=1;marginBottom=0;whiteSpace=wrap;html=1;rotation=-90;" parent="1" vertex="1">
          <mxGeometry x="917" y="997" width="335" height="50" as="geometry" />
        </mxCell>
        <mxCell id="cgwD6Vc4o7EYCOfsTwvc-15" value="+ database_repositories: List[AbstractDatabaseRepository]" style="text;strokeColor=none;fillColor=none;align=left;verticalAlign=top;spacingLeft=4;spacingRight=4;overflow=hidden;rotatable=0;points=[[0,0.5],[1,0.5]];portConstraint=eastwest;whiteSpace=wrap;html=1;rotation=-90;" parent="1" vertex="1">
          <mxGeometry x="929.1499999999999" y="1010" width="335" height="24" as="geometry" />
        </mxCell>
        <mxCell id="cgwD6Vc4o7EYCOfsTwvc-37" value="WeatherDatabaseRepository" style="swimlane;fontStyle=1;align=center;verticalAlign=top;childLayout=stackLayout;horizontal=1;startSize=26;horizontalStack=0;resizeParent=1;resizeParentMax=0;resizeLast=0;collapsible=1;marginBottom=0;whiteSpace=wrap;html=1;" parent="1" vertex="1">
          <mxGeometry x="1163.3500000000001" y="880" width="229.3" height="94" as="geometry" />
        </mxCell>
        <mxCell id="cgwD6Vc4o7EYCOfsTwvc-38" value="+ mapper: AbstractDomainEntityMapper" style="text;strokeColor=none;fillColor=none;align=left;verticalAlign=top;spacingLeft=4;spacingRight=4;overflow=hidden;rotatable=0;points=[[0,0.5],[1,0.5]];portConstraint=eastwest;whiteSpace=wrap;html=1;" parent="cgwD6Vc4o7EYCOfsTwvc-37" vertex="1">
          <mxGeometry y="26" width="229.3" height="34" as="geometry" />
        </mxCell>
        <mxCell id="cgwD6Vc4o7EYCOfsTwvc-39" value="" style="line;strokeWidth=1;fillColor=none;align=left;verticalAlign=middle;spacingTop=-1;spacingLeft=3;spacingRight=3;rotatable=0;labelPosition=right;points=[];portConstraint=eastwest;strokeColor=inherit;" parent="cgwD6Vc4o7EYCOfsTwvc-37" vertex="1">
          <mxGeometry y="60" width="229.3" height="8" as="geometry" />
        </mxCell>
        <mxCell id="cgwD6Vc4o7EYCOfsTwvc-40" value="..." style="text;strokeColor=none;fillColor=none;align=left;verticalAlign=top;spacingLeft=4;spacingRight=4;overflow=hidden;rotatable=0;points=[[0,0.5],[1,0.5]];portConstraint=eastwest;whiteSpace=wrap;html=1;" parent="cgwD6Vc4o7EYCOfsTwvc-37" vertex="1">
          <mxGeometry y="68" width="229.3" height="26" as="geometry" />
        </mxCell>
        <mxCell id="cgwD6Vc4o7EYCOfsTwvc-41" style="edgeStyle=orthogonalEdgeStyle;rounded=0;orthogonalLoop=1;jettySize=auto;html=1;entryX=0.505;entryY=0.982;entryDx=0;entryDy=0;entryPerimeter=0;" parent="1" source="cgwD6Vc4o7EYCOfsTwvc-37" target="OYgqFkg33m7x1YFqYTqs-10" edge="1">
          <mxGeometry relative="1" as="geometry" />
        </mxCell>
        <mxCell id="cgwD6Vc4o7EYCOfsTwvc-42" value="SomeAnotherDatabaseRepository" style="swimlane;fontStyle=1;align=center;verticalAlign=top;childLayout=stackLayout;horizontal=1;startSize=26;horizontalStack=0;resizeParent=1;resizeParentMax=0;resizeLast=0;collapsible=1;marginBottom=0;whiteSpace=wrap;html=1;" parent="1" vertex="1">
          <mxGeometry x="1163.3500000000001" y="990" width="229.3" height="94" as="geometry" />
        </mxCell>
        <mxCell id="cgwD6Vc4o7EYCOfsTwvc-43" value="+ mapper: AbstractDomainEntityMapper" style="text;strokeColor=none;fillColor=none;align=left;verticalAlign=top;spacingLeft=4;spacingRight=4;overflow=hidden;rotatable=0;points=[[0,0.5],[1,0.5]];portConstraint=eastwest;whiteSpace=wrap;html=1;" parent="cgwD6Vc4o7EYCOfsTwvc-42" vertex="1">
          <mxGeometry y="26" width="229.3" height="34" as="geometry" />
        </mxCell>
        <mxCell id="cgwD6Vc4o7EYCOfsTwvc-44" value="" style="line;strokeWidth=1;fillColor=none;align=left;verticalAlign=middle;spacingTop=-1;spacingLeft=3;spacingRight=3;rotatable=0;labelPosition=right;points=[];portConstraint=eastwest;strokeColor=inherit;" parent="cgwD6Vc4o7EYCOfsTwvc-42" vertex="1">
          <mxGeometry y="60" width="229.3" height="8" as="geometry" />
        </mxCell>
        <mxCell id="cgwD6Vc4o7EYCOfsTwvc-45" value="..." style="text;strokeColor=none;fillColor=none;align=left;verticalAlign=top;spacingLeft=4;spacingRight=4;overflow=hidden;rotatable=0;points=[[0,0.5],[1,0.5]];portConstraint=eastwest;whiteSpace=wrap;html=1;" parent="cgwD6Vc4o7EYCOfsTwvc-42" vertex="1">
          <mxGeometry y="68" width="229.3" height="26" as="geometry" />
        </mxCell>
        <mxCell id="cgwD6Vc4o7EYCOfsTwvc-46" value="..." style="swimlane;fontStyle=1;align=center;verticalAlign=top;childLayout=stackLayout;horizontal=1;startSize=26;horizontalStack=0;resizeParent=1;resizeParentMax=0;resizeLast=0;collapsible=1;marginBottom=0;whiteSpace=wrap;html=1;" parent="1" vertex="1">
          <mxGeometry x="1164.3500000000001" y="1100" width="229.3" height="94" as="geometry" />
        </mxCell>
        <mxCell id="cgwD6Vc4o7EYCOfsTwvc-47" value="+ mapper: AbstractDomainEntityMapper" style="text;strokeColor=none;fillColor=none;align=left;verticalAlign=top;spacingLeft=4;spacingRight=4;overflow=hidden;rotatable=0;points=[[0,0.5],[1,0.5]];portConstraint=eastwest;whiteSpace=wrap;html=1;" parent="cgwD6Vc4o7EYCOfsTwvc-46" vertex="1">
          <mxGeometry y="26" width="229.3" height="34" as="geometry" />
        </mxCell>
        <mxCell id="cgwD6Vc4o7EYCOfsTwvc-48" value="" style="line;strokeWidth=1;fillColor=none;align=left;verticalAlign=middle;spacingTop=-1;spacingLeft=3;spacingRight=3;rotatable=0;labelPosition=right;points=[];portConstraint=eastwest;strokeColor=inherit;" parent="cgwD6Vc4o7EYCOfsTwvc-46" vertex="1">
          <mxGeometry y="60" width="229.3" height="8" as="geometry" />
        </mxCell>
        <mxCell id="cgwD6Vc4o7EYCOfsTwvc-49" value="..." style="text;strokeColor=none;fillColor=none;align=left;verticalAlign=top;spacingLeft=4;spacingRight=4;overflow=hidden;rotatable=0;points=[[0,0.5],[1,0.5]];portConstraint=eastwest;whiteSpace=wrap;html=1;" parent="cgwD6Vc4o7EYCOfsTwvc-46" vertex="1">
          <mxGeometry y="68" width="229.3" height="26" as="geometry" />
        </mxCell>
        <mxCell id="BSPoM7POIrOYHgiOGZGu-3" value="&lt;font color=&quot;#ffffff&quot;&gt;WeatherORMModel&lt;/font&gt;" style="shape=callout;whiteSpace=wrap;html=1;perimeter=calloutPerimeter;fillColor=#e51400;fontColor=#ffffff;strokeColor=#B20000;" parent="1" vertex="1">
          <mxGeometry x="1310" y="834" width="114.3" height="56" as="geometry" />
        </mxCell>
        <mxCell id="tfglKuLKTxrIHlvx-Co_-6" value="weather_test_db" style="swimlane;" parent="1" vertex="1">
          <mxGeometry x="1420.0000000000002" y="905" width="100" height="84" as="geometry" />
        </mxCell>
        <mxCell id="cgwD6Vc4o7EYCOfsTwvc-51" value="" style="endArrow=diamondThin;endFill=0;endSize=24;html=1;rounded=0;exitX=0.5;exitY=0;exitDx=0;exitDy=0;entryX=1;entryY=0.5;entryDx=0;entryDy=0;edgeStyle=orthogonalEdgeStyle;curved=1;fillColor=#f8cecc;strokeColor=#b85450;" parent="1" source="cgwD6Vc4o7EYCOfsTwvc-14" target="a3Gb8fNIwVNxjmqMn_H6-16" edge="1">
          <mxGeometry width="160" relative="1" as="geometry">
            <mxPoint x="910" y="870" as="sourcePoint" />
            <mxPoint x="1070" y="870" as="targetPoint" />
          </mxGeometry>
        </mxCell>
        <mxCell id="cgwD6Vc4o7EYCOfsTwvc-52" value="" style="endArrow=diamondThin;endFill=0;endSize=24;html=1;rounded=0;exitX=0;exitY=0.5;exitDx=0;exitDy=0;entryX=1;entryY=0.5;entryDx=0;entryDy=0;edgeStyle=orthogonalEdgeStyle;curved=1;fillColor=#f8cecc;strokeColor=#b85450;" parent="1" source="a3Gb8fNIwVNxjmqMn_H6-16" target="OYgqFkg33m7x1YFqYTqs-82" edge="1">
          <mxGeometry width="160" relative="1" as="geometry">
            <mxPoint x="910" y="770" as="sourcePoint" />
            <mxPoint x="1070" y="770" as="targetPoint" />
          </mxGeometry>
        </mxCell>
        <mxCell id="cgwD6Vc4o7EYCOfsTwvc-58" value="DatabaseRepositoriesManager" style="swimlane;fontStyle=1;align=center;verticalAlign=top;childLayout=stackLayout;horizontal=1;startSize=26;horizontalStack=0;resizeParent=1;resizeParentMax=0;resizeLast=0;collapsible=1;marginBottom=0;whiteSpace=wrap;html=1;rotation=-90;" parent="1" vertex="1">
          <mxGeometry x="141" y="891" width="335" height="67" as="geometry" />
        </mxCell>
        <mxCell id="cgwD6Vc4o7EYCOfsTwvc-59" value="+ all_storage_services: List[AbstractStorageService]&lt;br&gt;+&amp;nbsp;selected_storage_services: List[str]" style="text;strokeColor=none;fillColor=none;align=left;verticalAlign=top;spacingLeft=4;spacingRight=4;overflow=hidden;rotatable=0;points=[[0,0.5],[1,0.5]];portConstraint=eastwest;whiteSpace=wrap;html=1;rotation=-90;" parent="1" vertex="1">
          <mxGeometry x="153.12" y="906" width="335" height="40" as="geometry" />
        </mxCell>
        <mxCell id="OYgqFkg33m7x1YFqYTqs-85" value="FileService" style="swimlane;fontStyle=1;align=center;verticalAlign=top;childLayout=stackLayout;horizontal=1;startSize=26;horizontalStack=0;resizeParent=1;resizeParentMax=0;resizeLast=0;collapsible=1;marginBottom=0;whiteSpace=wrap;html=1;" parent="1" vertex="1">
          <mxGeometry x="383.54" y="772" width="211" height="86" as="geometry" />
        </mxCell>
        <mxCell id="OYgqFkg33m7x1YFqYTqs-86" value="+ repository: AbstractFileRepository" style="text;strokeColor=none;fillColor=none;align=left;verticalAlign=top;spacingLeft=4;spacingRight=4;overflow=hidden;rotatable=0;points=[[0,0.5],[1,0.5]];portConstraint=eastwest;whiteSpace=wrap;html=1;" parent="OYgqFkg33m7x1YFqYTqs-85" vertex="1">
          <mxGeometry y="26" width="211" height="26" as="geometry" />
        </mxCell>
        <mxCell id="OYgqFkg33m7x1YFqYTqs-87" value="" style="line;strokeWidth=1;fillColor=none;align=left;verticalAlign=middle;spacingTop=-1;spacingLeft=3;spacingRight=3;rotatable=0;labelPosition=right;points=[];portConstraint=eastwest;strokeColor=inherit;" parent="OYgqFkg33m7x1YFqYTqs-85" vertex="1">
          <mxGeometry y="52" width="211" height="8" as="geometry" />
        </mxCell>
        <mxCell id="OYgqFkg33m7x1YFqYTqs-88" value="..." style="text;strokeColor=none;fillColor=none;align=left;verticalAlign=top;spacingLeft=4;spacingRight=4;overflow=hidden;rotatable=0;points=[[0,0.5],[1,0.5]];portConstraint=eastwest;whiteSpace=wrap;html=1;" parent="OYgqFkg33m7x1YFqYTqs-85" vertex="1">
          <mxGeometry y="60" width="211" height="26" as="geometry" />
        </mxCell>
        <mxCell id="cgwD6Vc4o7EYCOfsTwvc-64" value="" style="endArrow=diamondThin;endFill=0;endSize=24;html=1;rounded=0;exitX=0.5;exitY=0;exitDx=0;exitDy=0;entryX=1;entryY=0.5;entryDx=0;entryDy=0;edgeStyle=orthogonalEdgeStyle;curved=1;fillColor=#f8cecc;strokeColor=#b85450;" parent="1" source="cgwD6Vc4o7EYCOfsTwvc-58" target="gb8FqWn3YgWelBB0Mvwm-66" edge="1">
          <mxGeometry width="160" relative="1" as="geometry">
            <mxPoint x="250" y="800" as="sourcePoint" />
            <mxPoint x="410" y="800" as="targetPoint" />
          </mxGeometry>
        </mxCell>
        <mxCell id="cgwD6Vc4o7EYCOfsTwvc-65" value="" style="endArrow=diamondThin;endFill=0;endSize=24;html=1;rounded=0;exitX=0;exitY=0.25;exitDx=0;exitDy=0;entryX=1;entryY=0.214;entryDx=0;entryDy=0;entryPerimeter=0;edgeStyle=orthogonalEdgeStyle;curved=1;fillColor=#f8cecc;strokeColor=#b85450;" parent="1" source="gb8FqWn3YgWelBB0Mvwm-2" target="gb8FqWn3YgWelBB0Mvwm-66" edge="1">
          <mxGeometry width="160" relative="1" as="geometry">
            <mxPoint x="160" y="450" as="sourcePoint" />
            <mxPoint x="180" y="620" as="targetPoint" />
          </mxGeometry>
        </mxCell>
        <mxCell id="cgwD6Vc4o7EYCOfsTwvc-66" value="" style="endArrow=diamondThin;endFill=0;endSize=24;html=1;rounded=0;exitX=0;exitY=0.25;exitDx=0;exitDy=0;entryX=1.001;entryY=0.771;entryDx=0;entryDy=0;entryPerimeter=0;edgeStyle=orthogonalEdgeStyle;curved=1;fillColor=#f8cecc;strokeColor=#b85450;" parent="1" source="gb8FqWn3YgWelBB0Mvwm-23" target="gb8FqWn3YgWelBB0Mvwm-66" edge="1">
          <mxGeometry width="160" relative="1" as="geometry">
            <mxPoint x="150" y="1010" as="sourcePoint" />
            <mxPoint x="160" y="800" as="targetPoint" />
          </mxGeometry>
        </mxCell>
        <mxCell id="cgwD6Vc4o7EYCOfsTwvc-67" value="" style="endArrow=diamondThin;endFill=0;endSize=24;html=1;rounded=0;exitX=0;exitY=0.25;exitDx=0;exitDy=0;entryX=1;entryY=0.5;entryDx=0;entryDy=0;edgeStyle=orthogonalEdgeStyle;curved=1;fillColor=#f8cecc;strokeColor=#b85450;" parent="1" source="OYgqFkg33m7x1YFqYTqs-3" target="OYgqFkg33m7x1YFqYTqs-86" edge="1">
          <mxGeometry width="160" relative="1" as="geometry">
            <mxPoint x="830" y="660" as="sourcePoint" />
            <mxPoint x="990" y="660" as="targetPoint" />
          </mxGeometry>
        </mxCell>
        <mxCell id="a3Gb8fNIwVNxjmqMn_H6-15" value="WeatherUnitOfWork" style="swimlane;fontStyle=1;align=center;verticalAlign=top;childLayout=stackLayout;horizontal=1;startSize=26;horizontalStack=0;resizeParent=1;resizeParentMax=0;resizeLast=0;collapsible=1;marginBottom=0;whiteSpace=wrap;html=1;" parent="1" vertex="1">
          <mxGeometry x="760.43" y="940" width="237.15" height="180" as="geometry" />
        </mxCell>
        <mxCell id="a3Gb8fNIwVNxjmqMn_H6-16" value="allowed_repository_classes = [WeatherDatabaseRepository]&lt;br&gt;&lt;br&gt;+ async_session_factory:&amp;nbsp;&lt;br style=&quot;border-color: var(--border-color);&quot;&gt;AbstractContextManager[AsyncSession]&lt;br style=&quot;border-color: var(--border-color);&quot;&gt;+ database_repositories_manager: DatabaseRepositoriesManager" style="text;strokeColor=none;fillColor=none;align=left;verticalAlign=top;spacingLeft=4;spacingRight=4;overflow=hidden;rotatable=0;points=[[0,0.5],[1,0.5]];portConstraint=eastwest;whiteSpace=wrap;html=1;" parent="a3Gb8fNIwVNxjmqMn_H6-15" vertex="1">
          <mxGeometry y="26" width="237.15" height="114" as="geometry" />
        </mxCell>
        <mxCell id="a3Gb8fNIwVNxjmqMn_H6-17" value="" style="line;strokeWidth=1;fillColor=none;align=left;verticalAlign=middle;spacingTop=-1;spacingLeft=3;spacingRight=3;rotatable=0;labelPosition=right;points=[];portConstraint=eastwest;strokeColor=inherit;" parent="a3Gb8fNIwVNxjmqMn_H6-15" vertex="1">
          <mxGeometry y="140" width="237.15" height="8" as="geometry" />
        </mxCell>
        <mxCell id="a3Gb8fNIwVNxjmqMn_H6-18" value="..." style="text;strokeColor=none;fillColor=none;align=left;verticalAlign=top;spacingLeft=4;spacingRight=4;overflow=hidden;rotatable=0;points=[[0,0.5],[1,0.5]];portConstraint=eastwest;whiteSpace=wrap;html=1;" parent="a3Gb8fNIwVNxjmqMn_H6-15" vertex="1">
          <mxGeometry y="148" width="237.15" height="32" as="geometry" />
        </mxCell>
        <mxCell id="a3Gb8fNIwVNxjmqMn_H6-10" value="BaseUnitOfWork" style="swimlane;fontStyle=1;align=center;verticalAlign=top;childLayout=stackLayout;horizontal=1;startSize=26;horizontalStack=0;resizeParent=1;resizeParentMax=0;resizeLast=0;collapsible=1;marginBottom=0;whiteSpace=wrap;html=1;" parent="1" vertex="1">
          <mxGeometry x="759.9999999999999" y="454" width="237.15" height="170" as="geometry" />
        </mxCell>
        <mxCell id="a3Gb8fNIwVNxjmqMn_H6-11" value="allowed_repository_classes: List[Type[AbstractDatabaseRepository]]&lt;br&gt;&lt;br&gt;+ async_session_factory:&amp;nbsp;&lt;br style=&quot;border-color: var(--border-color);&quot;&gt;AbstractContextManager[AsyncSession]&lt;br style=&quot;border-color: var(--border-color);&quot;&gt;+ database_repositories_manager: DatabaseRepositoriesManager" style="text;strokeColor=none;fillColor=none;align=left;verticalAlign=top;spacingLeft=4;spacingRight=4;overflow=hidden;rotatable=0;points=[[0,0.5],[1,0.5]];portConstraint=eastwest;whiteSpace=wrap;html=1;" parent="a3Gb8fNIwVNxjmqMn_H6-10" vertex="1">
          <mxGeometry y="26" width="237.15" height="104" as="geometry" />
        </mxCell>
        <mxCell id="a3Gb8fNIwVNxjmqMn_H6-12" value="" style="line;strokeWidth=1;fillColor=none;align=left;verticalAlign=middle;spacingTop=-1;spacingLeft=3;spacingRight=3;rotatable=0;labelPosition=right;points=[];portConstraint=eastwest;strokeColor=inherit;" parent="a3Gb8fNIwVNxjmqMn_H6-10" vertex="1">
          <mxGeometry y="130" width="237.15" height="8" as="geometry" />
        </mxCell>
        <mxCell id="a3Gb8fNIwVNxjmqMn_H6-13" value="..." style="text;strokeColor=none;fillColor=none;align=left;verticalAlign=top;spacingLeft=4;spacingRight=4;overflow=hidden;rotatable=0;points=[[0,0.5],[1,0.5]];portConstraint=eastwest;whiteSpace=wrap;html=1;" parent="a3Gb8fNIwVNxjmqMn_H6-10" vertex="1">
          <mxGeometry y="138" width="237.15" height="32" as="geometry" />
        </mxCell>
        <mxCell id="pVMVurdd3-viT6NpHDVu-1" value="" style="endArrow=diamondThin;endFill=0;endSize=24;html=1;rounded=0;exitX=0;exitY=0.25;exitDx=0;exitDy=0;entryX=1;entryY=0.75;entryDx=0;entryDy=0;edgeStyle=orthogonalEdgeStyle;curved=1;fillColor=#f8cecc;strokeColor=#b85450;" parent="1" source="OYgqFkg33m7x1YFqYTqs-7" target="cgwD6Vc4o7EYCOfsTwvc-14" edge="1">
          <mxGeometry width="160" relative="1" as="geometry">
            <mxPoint x="1033.65" y="577.07" as="sourcePoint" />
            <mxPoint x="1193.65" y="577.07" as="targetPoint" />
          </mxGeometry>
        </mxCell>
        <mxCell id="cgwD6Vc4o7EYCOfsTwvc-57" value="&lt;font color=&quot;#ffffff&quot;&gt;WeatherDomain&lt;/font&gt;" style="shape=callout;whiteSpace=wrap;html=1;perimeter=calloutPerimeter;fillColor=#fa6800;fontColor=#000000;strokeColor=#C73500;" parent="1" vertex="1">
          <mxGeometry x="505.00000000000006" y="730" width="100" height="61" as="geometry" />
        </mxCell>
        <mxCell id="pVMVurdd3-viT6NpHDVu-2" value="&lt;font style=&quot;font-size: 20px;&quot;&gt;units_of_work&lt;/font&gt;" style="text;html=1;strokeColor=none;fillColor=none;align=center;verticalAlign=middle;whiteSpace=wrap;rounded=0;" parent="1" vertex="1">
          <mxGeometry x="910.0000000000002" y="1184" width="113" height="26" as="geometry" />
        </mxCell>
        <mxCell id="pVMVurdd3-viT6NpHDVu-8" value="" style="endArrow=diamondThin;endFill=0;endSize=24;html=1;rounded=0;exitX=0.25;exitY=0;exitDx=0;exitDy=0;edgeStyle=orthogonalEdgeStyle;curved=1;fillColor=#dae8fc;strokeColor=#6c8ebf;" parent="1" source="gb8FqWn3YgWelBB0Mvwm-30" target="cgwD6Vc4o7EYCOfsTwvc-46" edge="1">
          <mxGeometry width="160" relative="1" as="geometry">
            <mxPoint x="1120" y="1370" as="sourcePoint" />
            <mxPoint x="1280" y="1370" as="targetPoint" />
          </mxGeometry>
        </mxCell>
        <mxCell id="pVMVurdd3-viT6NpHDVu-9" value="" style="endArrow=diamondThin;endFill=0;endSize=24;html=1;rounded=0;exitX=0.474;exitY=0.015;exitDx=0;exitDy=0;exitPerimeter=0;edgeStyle=orthogonalEdgeStyle;curved=1;fillColor=#dae8fc;strokeColor=#6c8ebf;" parent="1" source="gb8FqWn3YgWelBB0Mvwm-30" target="OYgqFkg33m7x1YFqYTqs-36" edge="1">
          <mxGeometry width="160" relative="1" as="geometry">
            <mxPoint x="1400" y="1020" as="sourcePoint" />
            <mxPoint x="1560" y="1020" as="targetPoint" />
          </mxGeometry>
        </mxCell>
        <mxCell id="pVMVurdd3-viT6NpHDVu-10" value="" style="endArrow=diamondThin;endFill=0;endSize=24;html=1;rounded=0;exitX=0.75;exitY=0;exitDx=0;exitDy=0;edgeStyle=orthogonalEdgeStyle;curved=1;fillColor=#dae8fc;strokeColor=#6c8ebf;" parent="1" source="gb8FqWn3YgWelBB0Mvwm-30" edge="1">
          <mxGeometry width="160" relative="1" as="geometry">
            <mxPoint x="1769" y="1250" as="sourcePoint" />
            <mxPoint x="1758.964120781528" y="734.0000000000002" as="targetPoint" />
          </mxGeometry>
        </mxCell>
        <mxCell id="pVMVurdd3-viT6NpHDVu-11" value="dispatch" style="html=1;verticalAlign=bottom;endArrow=block;curved=0;rounded=0;exitX=0.75;exitY=1;exitDx=0;exitDy=0;entryX=0;entryY=0.5;entryDx=0;entryDy=0;" parent="1" source="cgwD6Vc4o7EYCOfsTwvc-14" target="cgwD6Vc4o7EYCOfsTwvc-38" edge="1">
          <mxGeometry width="80" relative="1" as="geometry">
            <mxPoint x="1170" y="1060" as="sourcePoint" />
            <mxPoint x="1250" y="1060" as="targetPoint" />
          </mxGeometry>
        </mxCell>
        <mxCell id="pVMVurdd3-viT6NpHDVu-12" value="dispatch" style="html=1;verticalAlign=bottom;endArrow=block;curved=0;rounded=0;exitX=0.5;exitY=1;exitDx=0;exitDy=0;entryX=0;entryY=0.5;entryDx=0;entryDy=0;" parent="1" source="cgwD6Vc4o7EYCOfsTwvc-14" target="cgwD6Vc4o7EYCOfsTwvc-43" edge="1">
          <mxGeometry width="80" relative="1" as="geometry">
            <mxPoint x="1170" y="1060" as="sourcePoint" />
            <mxPoint x="1250" y="1060" as="targetPoint" />
          </mxGeometry>
        </mxCell>
        <mxCell id="pVMVurdd3-viT6NpHDVu-14" value="dispatch" style="html=1;verticalAlign=bottom;endArrow=block;curved=0;rounded=0;exitX=0.25;exitY=1;exitDx=0;exitDy=0;entryX=0;entryY=0.5;entryDx=0;entryDy=0;" parent="1" source="cgwD6Vc4o7EYCOfsTwvc-14" target="cgwD6Vc4o7EYCOfsTwvc-47" edge="1">
          <mxGeometry width="80" relative="1" as="geometry">
            <mxPoint x="1170" y="1060" as="sourcePoint" />
            <mxPoint x="1250" y="1060" as="targetPoint" />
          </mxGeometry>
        </mxCell>
        <mxCell id="pVMVurdd3-viT6NpHDVu-15" value="" style="endArrow=diamondThin;endFill=0;endSize=24;html=1;rounded=0;exitX=0;exitY=0.25;exitDx=0;exitDy=0;entryX=1;entryY=0.75;entryDx=0;entryDy=0;edgeStyle=orthogonalEdgeStyle;curved=1;fillColor=#f8cecc;strokeColor=#b85450;" parent="1" source="OYgqFkg33m7x1YFqYTqs-74" target="cgwD6Vc4o7EYCOfsTwvc-58" edge="1">
          <mxGeometry width="160" relative="1" as="geometry">
            <mxPoint x="670" y="860" as="sourcePoint" />
            <mxPoint x="830" y="860" as="targetPoint" />
          </mxGeometry>
        </mxCell>
        <mxCell id="pVMVurdd3-viT6NpHDVu-16" value="dispatch" style="html=1;verticalAlign=bottom;endArrow=block;curved=0;rounded=0;exitX=0.75;exitY=1;exitDx=0;exitDy=0;entryX=0;entryY=0.5;entryDx=0;entryDy=0;" parent="1" source="cgwD6Vc4o7EYCOfsTwvc-58" target="OYgqFkg33m7x1YFqYTqs-86" edge="1">
          <mxGeometry width="80" relative="1" as="geometry">
            <mxPoint x="840" y="770" as="sourcePoint" />
            <mxPoint x="920" y="770" as="targetPoint" />
          </mxGeometry>
        </mxCell>
        <mxCell id="pVMVurdd3-viT6NpHDVu-17" value="dispatch" style="html=1;verticalAlign=bottom;endArrow=block;curved=0;rounded=0;exitX=0.25;exitY=1;exitDx=0;exitDy=0;entryX=0;entryY=0.5;entryDx=0;entryDy=0;" parent="1" source="cgwD6Vc4o7EYCOfsTwvc-58" target="OYgqFkg33m7x1YFqYTqs-82" edge="1">
          <mxGeometry width="80" relative="1" as="geometry">
            <mxPoint x="840" y="770" as="sourcePoint" />
            <mxPoint x="920" y="770" as="targetPoint" />
          </mxGeometry>
        </mxCell>
        <mxCell id="pVMVurdd3-viT6NpHDVu-18" value="" style="endArrow=diamondThin;endFill=0;endSize=24;html=1;rounded=0;exitX=0.5;exitY=0;exitDx=0;exitDy=0;fillColor=#ffe6cc;strokeColor=#d79b00;" parent="1" source="a3Gb8fNIwVNxjmqMn_H6-30" target="a3Gb8fNIwVNxjmqMn_H6-15" edge="1">
          <mxGeometry width="160" relative="1" as="geometry">
            <mxPoint x="1220" y="1150" as="sourcePoint" />
            <mxPoint x="1380" y="1150" as="targetPoint" />
          </mxGeometry>
        </mxCell>
        <mxCell id="pVMVurdd3-viT6NpHDVu-19" value="" style="endArrow=none;dashed=1;html=1;rounded=0;exitX=0.271;exitY=1.02;exitDx=0;exitDy=0;exitPerimeter=0;entryX=0.272;entryY=-0.001;entryDx=0;entryDy=0;entryPerimeter=0;" parent="1" edge="1">
          <mxGeometry width="50" height="50" relative="1" as="geometry">
            <mxPoint x="1039.998" y="1467.49" as="sourcePoint" />
            <mxPoint x="1041.246" y="1225.513" as="targetPoint" />
          </mxGeometry>
        </mxCell>
      </root>
    </mxGraphModel>
  </diagram>
</mxfile>
